<svg width="82" height="82" viewBox="0 0 82 82" fill="none" xmlns="http://www.w3.org/2000/svg">
<path d="M41.0359 27.2741C39.2866 27.2741 37.5373 26.6072 36.2049 25.2734L29.4129 18.4745C26.748 15.807 26.748 11.4671 29.4129 8.79952L36.2049 2.00067C38.8664 -0.666889 43.2054 -0.666889 45.8668 2.00067L52.6589 8.79952C55.3238 11.4671 55.3238 15.807 52.6589 18.4745L45.8668 25.2734C44.5344 26.6072 42.7851 27.2741 41.0359 27.2741ZM33.1676 42.8382C29.7272 39.644 24.0797 40.2801 21.5104 44.5414C19.8432 47.3115 20.3147 50.8854 22.3475 53.3956L28.4562 61.2751C29.6144 62.7662 29.3445 64.914 27.8515 66.0733C26.3619 67.2327 24.2163 66.9625 23.0581 65.468L16.9494 57.5884C13.116 52.8587 12.5591 46.1487 15.6579 41.0086C16.0782 40.3109 16.5667 39.6714 17.0826 39.066V19.0833C17.0826 14.61 13.8677 10.5368 9.42277 10.0888C4.31165 9.57584 0 13.5806 0 18.5942V54.6644C0 61.9625 2.91429 68.9598 8.09375 74.0999L14.2162 80.1703C15.4803 81.3434 17.1373 81.9932 18.8626 81.9932H44.4148C46.3007 81.9932 47.8313 80.461 47.8313 78.5732V65.509C47.8313 59.849 45.4944 54.4387 41.3741 50.5605L33.1676 42.8382ZM72.5704 10.0923C68.1255 10.5368 64.9105 14.6134 64.9105 19.0867V39.0729C65.4264 39.6782 65.9116 40.3143 66.3352 41.0154C69.4306 46.1556 68.8771 52.8655 65.0438 57.5953L54.6644 67.9372V78.5801C54.6644 79.7839 54.4184 80.9261 54.0357 82H63.1374C64.8593 82 66.5197 81.3502 67.7838 80.1772L73.8994 74.117C79.0823 68.9803 82 61.9796 82 54.6746V18.5977C82 13.584 77.6918 9.57926 72.5772 10.0923H72.5704ZM60.4827 44.5448C57.9135 40.2835 52.266 39.6474 48.8255 42.8416L45.983 45.516L46.0513 45.581C49.9496 49.2506 52.6145 54.0078 53.8513 59.1514L59.6423 53.399C61.6751 50.8888 62.1466 47.3115 60.4793 44.5448H60.4827Z" fill="#D84826"/>
</svg>
