<svg width="89" height="89" viewBox="0 0 89 89" fill="none" xmlns="http://www.w3.org/2000/svg">
<path d="M83.018 24.5347C79.1536 20.67 74.0393 18.5448 68.6025 18.5448H66.6703C66.2438 13.7973 64.1929 9.38736 60.7809 5.97512C56.9277 2.12152 51.806 0 46.358 0H20.3975C14.9644 0 9.84645 2.12523 5.98204 5.98996C2.12134 9.85098 0 14.973 0 20.4104L0.0148346 63.5232C0.0222519 67.3434 3.13009 70.4552 6.94258 70.4552C7.62497 70.4552 8.29994 70.3551 8.95266 70.1548C9.13068 70.0992 22.5152 64.495 22.5152 64.495C24.0951 74.179 32.5211 81.5969 42.6457 81.5969H63.0432C63.0432 81.5969 79.8693 88.6439 80.0473 88.6996C80.7001 88.8999 81.375 89 82.0574 89C85.8773 89 88.9815 85.8845 88.9815 82.0606L89 38.9551C89 33.5178 86.8787 28.3957 83.018 24.5347ZM11.1259 20.4029C11.1259 17.9439 12.0939 15.6184 13.8518 13.8566C15.6097 12.0949 17.935 11.1269 20.3975 11.1269H46.358C48.8354 11.1269 51.1644 12.0912 52.9149 13.8418C54.6654 15.5924 55.6296 17.9254 55.6296 20.4029V42.6529C55.6296 47.7676 51.4685 51.9253 46.358 51.9253H24.8405C24.1025 51.9253 23.3719 52.0737 22.6895 52.3593L11.1445 57.2032L11.1259 20.4029ZM77.8592 75.7479L66.3142 70.904C65.6318 70.6184 64.9012 70.4701 64.1632 70.4701H42.6457C38.1693 70.4701 34.4236 67.2804 33.5595 63.0522H46.3543C57.6026 63.0522 66.7519 53.8985 66.7519 42.6529V29.6716H68.6025C71.065 29.6716 73.3903 30.6434 75.1482 32.4014C76.9098 34.1632 77.8778 36.4887 77.8741 38.9477L77.8592 75.7479Z" fill="#D84826"/>
</svg>
