<svg width="87" height="87" viewBox="0 0 87 87" fill="none" xmlns="http://www.w3.org/2000/svg">
<path d="M83.3738 87H65.2493C63.7994 87 62.4908 86.1373 61.9181 84.8069C61.3453 83.4765 61.6208 81.9286 62.6213 80.8774C65.4922 77.8578 69.7514 76.125 74.3115 76.125C78.8717 76.125 83.1309 77.8578 86.0018 80.8774C87.0023 81.9286 87.2778 83.4765 86.705 84.8069C86.1323 86.1373 84.8237 87 83.3738 87ZM55.8935 84.8069C56.4662 83.4765 56.1907 81.9286 55.1903 80.8774C52.3194 77.8578 48.0601 76.125 43.5 76.125C38.9399 76.125 34.6806 77.8578 31.8097 80.8774C30.8093 81.9286 30.5338 83.4765 31.1065 84.8069C31.6792 86.1373 32.9878 87 34.4378 87H52.5622C54.0122 87 55.3208 86.1373 55.8935 84.8069ZM25.0819 84.8069C25.6547 83.4765 25.3792 81.9286 24.3787 80.8774C21.5078 77.8578 17.2486 76.125 12.6885 76.125C8.12835 76.125 3.8691 77.8578 0.998192 80.8774C-0.00227717 81.9286 -0.277769 83.4765 0.294964 84.8069C0.867696 86.1373 2.17628 87 3.62624 87H21.7507C23.2006 87 24.5092 86.1373 25.0819 84.8069ZM12.6885 72.5C16.694 72.5 19.9382 69.2556 19.9382 65.25C19.9382 61.2444 16.694 58 12.6885 58C8.68295 58 5.43868 61.2444 5.43868 65.25C5.43868 69.2556 8.68295 72.5 12.6885 72.5ZM43.5 72.5C47.5055 72.5 50.7498 69.2556 50.7498 65.25C50.7498 61.2444 47.5055 58 43.5 58C39.4945 58 36.2502 61.2444 36.2502 65.25C36.2502 69.2556 39.4945 72.5 43.5 72.5ZM74.3115 72.5C78.317 72.5 81.5613 69.2556 81.5613 65.25C81.5613 61.2444 78.317 58 74.3115 58C70.306 58 67.0618 61.2444 67.0618 65.25C67.0618 69.2556 70.306 72.5 74.3115 72.5ZM16.3133 18.125C21.3193 18.125 25.3756 14.0686 25.3756 9.0625C25.3756 4.05637 21.3193 0 16.3133 0C11.3074 0 7.25112 4.05637 7.25112 9.0625C7.25112 14.0686 11.3074 18.125 16.3133 18.125ZM74.3115 0H29.8704C31.6067 2.59187 32.6253 5.70937 32.6253 9.0625C32.6253 10.9801 32.2338 12.7926 31.6249 14.5H50.3184C55.5781 14.5 60.4101 18.0452 61.4106 23.2072C62.759 30.1491 57.4522 36.25 50.7461 36.25H36.2466V47.125C36.2466 49.126 37.8705 50.75 39.8715 50.75H57.9959V47.125C57.9959 45.124 59.6199 43.5 61.6208 43.5H68.8706C70.8715 43.5 72.4955 45.124 72.4955 47.125V50.75H74.3079C81.3148 50.75 86.995 45.0696 86.995 38.0625V12.6875C86.995 5.68038 81.3185 0 74.3115 0ZM29.0004 47.125V29H50.7498C52.7543 29 54.3747 27.376 54.3747 25.375C54.3747 23.374 52.7543 21.75 50.7498 21.75H14.5009C6.49352 21.75 0.00134764 28.2424 0.00134764 36.25V47.125C0.00134764 49.126 1.6253 50.75 3.62624 50.75H25.3756C27.3765 50.75 29.0004 49.126 29.0004 47.125Z" fill="#D84826"/>
</svg>
