<svg width="87" height="87" viewBox="0 0 87 87" fill="none" xmlns="http://www.w3.org/2000/svg">
<path d="M59.6276 48.8469C59.6276 55.5278 51.2394 63.7565 46.4725 67.686C44.5476 69.2738 41.7999 69.2738 39.875 67.686C35.1081 63.7565 27.0026 55.5278 27.0026 48.8469C27.0026 43.8915 30.653 39.875 35.1589 39.875C39.6648 39.875 43.3151 43.8915 43.3151 48.8469C43.3151 43.8915 46.9655 39.875 51.4714 39.875C55.9773 39.875 59.6276 43.8915 59.6276 48.8469ZM87 27.1875V67.0625C87 78.0571 78.0571 87 67.0625 87H19.9375C8.94288 87 0 78.0571 0 67.0625V27.1875C0 16.1929 8.94288 7.25 19.9375 7.25H21.75V5.4375C21.75 2.43238 24.1824 0 27.1875 0C30.1926 0 32.625 2.43238 32.625 5.4375V7.25H54.375V5.4375C54.375 2.43238 56.8074 0 59.8125 0C62.8176 0 65.25 2.43238 65.25 5.4375V7.25H67.0625C78.0571 7.25 87 16.1929 87 27.1875ZM76.125 67.0625V32.625H10.875V67.0625C10.875 72.0578 14.9422 76.125 19.9375 76.125H67.0625C72.0578 76.125 76.125 72.0578 76.125 67.0625Z" fill="#D84826"/>
</svg>
