<svg width="87" height="87" viewBox="0 0 87 87" fill="none" xmlns="http://www.w3.org/2000/svg">
<path d="M65.25 65.2514C65.25 68.249 62.8104 70.6885 59.8125 70.6885C56.8146 70.6885 54.375 68.249 54.375 65.2514C54.375 62.2537 56.8146 59.8142 59.8125 59.8142C62.8104 59.8142 65.25 62.2537 65.25 65.2514ZM87 43.5027V68.8761C87 78.8696 78.8691 87 68.875 87H18.125C8.13088 87 0 78.8696 0 68.8761V43.5027H87ZM36.25 72.5009C36.25 70.5 34.6296 68.8761 32.625 68.8761H18.125C16.1204 68.8761 14.5 70.5 14.5 72.5009C14.5 74.5018 16.1204 76.1257 18.125 76.1257H32.625C34.6296 76.1257 36.25 74.5018 36.25 72.5009ZM36.25 58.0018C36.25 56.0009 34.6296 54.377 32.625 54.377H18.125C16.1204 54.377 14.5 56.0009 14.5 58.0018C14.5 60.0027 16.1204 61.6266 18.125 61.6266H32.625C34.6296 61.6266 36.25 60.0027 36.25 58.0018ZM72.5 65.2514C72.5 58.2555 66.8087 52.5646 59.8125 52.5646C52.8163 52.5646 47.125 58.2555 47.125 65.2514C47.125 72.2472 52.8163 77.9381 59.8125 77.9381C66.8087 77.9381 72.5 72.2472 72.5 65.2514ZM86.6339 36.2532C84.9483 27.9923 77.6258 21.7541 68.875 21.7541H36.4167L77.3502 7.04109C79.2389 6.36326 80.214 4.28989 79.5397 2.40501C78.8582 0.520125 76.7775 -0.469439 74.9034 0.219268L12.4954 22.6494C6.36912 24.6575 1.67113 29.8446 0.366125 36.2532H86.6339Z" fill="#D84826"/>
</svg>
