<svg width="87" height="87" viewBox="0 0 87 87" fill="none" xmlns="http://www.w3.org/2000/svg">
<path d="M87 35.8485V67.0671C87 78.0555 78.0531 87 67.0617 87H19.9383C8.94325 87.0036 0 78.0592 0 67.0707V35.8521C0 29.2162 3.28439 23.0407 8.78737 19.3295L32.3472 3.43028C39.1226 -1.14343 47.8737 -1.14343 54.6492 3.43028L68.8742 13.0271V9.08036C68.8742 6.07955 71.3103 3.6441 74.312 3.6441C77.3136 3.6441 79.7497 6.07955 79.7497 9.08036V20.4711C84.321 24.233 87 29.8541 87 35.8485ZM76.1245 35.8485C76.1245 32.8332 74.6346 30.0281 72.1296 28.3428L48.5662 12.44C47.0255 11.4034 45.26 10.8816 43.4982 10.8816C41.7364 10.8816 39.9673 11.4034 38.4302 12.44L14.8667 28.3392C12.3654 30.0281 10.8718 32.8332 10.8718 35.8485V67.0671C10.8718 72.0648 14.9392 76.1275 19.9347 76.1275H67.0617C72.0607 76.1275 76.1245 72.0648 76.1245 67.0671V35.8485Z" fill="#D84826"/>
<path d="M57.1562 48.1875C57.1562 55.6395 51.1151 61.6806 43.6631 61.6806C36.211 61.6806 30.1699 55.6395 30.1699 48.1875C30.1699 40.7354 36.211 34.6943 43.6631 34.6943C51.1151 34.6943 57.1562 40.7354 57.1562 48.1875Z" fill="#D84826"/>
<path d="M28.9484 60.1455C27.2814 61.1079 25.1498 60.5368 24.1873 58.8697C23.2249 57.2027 23.796 55.0711 25.4631 54.1086L58.3775 35.1054C60.0446 34.1429 62.1762 34.7141 63.1387 36.3811C64.1011 38.0482 63.53 40.1798 61.8629 41.1423L28.9484 60.1455Z" fill="#D84826"/>
<path d="M40.1432 28.648C40.1432 26.7378 41.6917 25.1894 43.6018 25.1894C45.5119 25.1894 47.0603 26.7378 47.0603 28.648V66.708C47.0603 68.6181 45.5119 70.1665 43.6018 70.1665C41.6917 70.1665 40.1432 68.6181 40.1432 66.708V28.648Z" fill="#D84826"/>
<path d="M25.3922 41.1585C23.738 40.2035 23.1712 38.0882 24.1262 36.434C25.0813 34.7798 27.1965 34.213 28.8507 35.1681L61.8117 54.1981C63.4659 55.1532 64.0326 57.2684 63.0776 58.9226C62.1225 60.5768 60.0073 61.1436 58.3531 60.1885L25.3922 41.1585Z" fill="#D84826"/>
</svg>
