<svg width="87" height="87" viewBox="0 0 87 87" fill="none" xmlns="http://www.w3.org/2000/svg">
<path d="M80.5112 12.2342C80.1814 11.988 79.8442 11.76 79.4999 11.5464C78.851 8.10747 76.9551 5.04139 74.0841 2.87668C70.4809 0.161743 65.9242 -0.678079 61.596 0.556314L48.3901 4.32465C46.5776 4.8423 44.9246 5.70746 43.5 6.83325C42.0754 5.70746 40.4224 4.8423 38.6099 4.32465L25.4076 0.559934C21.0794 -0.670839 16.5227 0.168982 12.9195 2.8803C10.0485 5.04139 8.15625 8.11109 7.50375 11.55C7.15937 11.7636 6.82225 11.9916 6.49238 12.2378C2.36712 15.3437 0 20.0822 0 25.2442V74.5873L43.5 87L87 74.5873V25.2405C87 20.0822 84.6365 15.3401 80.5112 12.2342ZM48.9411 18.0007C48.9411 16.5093 49.9453 15.1808 51.3808 14.7681C51.3808 14.7681 65.2427 10.8622 65.5364 10.8622C66.4644 10.8622 67.1604 11.2604 67.5374 11.5464C68.0376 11.9229 68.8786 12.7735 68.8786 14.2288V63.0289L48.9411 68.7158V18.0007ZM18.1286 14.2324C18.1286 12.7772 18.966 11.9265 19.4699 11.55C19.9701 11.1735 21.0141 10.6016 22.4206 11.0034L35.6265 14.7717C37.062 15.1808 38.0661 16.5093 38.0661 18.0043V68.723L18.1286 63.0361V14.2324Z" fill="#D84826"/>
</svg>
