<svg width="503" height="234" viewBox="0 0 503 234" fill="none" xmlns="http://www.w3.org/2000/svg">
<path d="M171.692 123.676C176.334 106.521 164.352 98.0823 148.904 98.4665C133.455 98.8506 118.643 101.276 104.526 103.268C90.409 105.261 79.1107 94.505 78.1392 81.6603C77.1677 68.8276 94.7748 65.1183 99.8123 54.1343C104.862 43.1503 105.749 24.9036 97.0297 14.7359C88.3101 4.56816 76.448 0.570703 63.7464 0.0305056C51.0448 -0.509692 38.823 6.17675 30.4632 15.9363C22.0914 25.6839 16.5142 33.8229 10.949 45.6232C5.37178 57.4115 0.802077 71.5406 0.178391 85.2616C-0.445296 98.9827 0.502228 118.01 4.04045 130.614C7.59066 143.207 11.4647 154.299 19.6686 164.19C27.8725 174.082 38.0673 180.997 49.7495 184.502C61.4196 188.019 80.6219 190.336 91.2366 182.401C101.839 174.466 112.286 171.597 123.716 165.691C131.992 175.823 148.244 175.955 157.299 166.891C173.923 181.081 187.632 161.694 186.085 145.284C197.203 149.989 217.677 168.644 200.478 176.495C204.819 163.062 184.202 164.515 186.181 175.198C188.148 185.894 199.638 188.103 207.398 183.422C215.158 178.74 213.875 166.903 224.466 165.691C233.629 177.371 250.612 174.634 260.447 165.691C269.419 179.844 280.214 160.733 278.702 150.349C277.191 139.966 290.504 121.923 295.494 135.416C300.495 148.897 301.647 162.462 290.432 169.292C282.768 151.886 271.326 176.579 284.16 179.148C296.993 181.729 302.199 167.72 304.825 159.689C307.452 151.658 296.741 127.793 310.786 129.714C324.843 131.623 317.635 150.95 315.596 159.665C313.545 168.368 308.567 180.324 305.221 190.096C301.875 199.868 303.314 214.561 312.321 221.812C321.341 229.05 332.243 230.779 341.911 225.617C351.59 220.467 358.666 214.897 366.918 208.631C375.17 202.364 390.498 198.631 394.78 210.107C385.041 201.5 370.588 211.224 374.426 223.276C378.252 235.34 394.996 234.104 400.777 223.312C407.194 228.378 420.111 226.025 418.768 216.109C429.934 233.024 451.835 241.163 468.243 226.013C484.651 210.864 482.84 187.083 482.336 165.691C490.852 161.309 497.328 157.564 501.79 147.949C506.252 138.345 497.724 125.56 486.834 132.979C475.931 140.386 477.778 146.376 475.128 158.476C472.477 170.577 456.393 161.754 460.747 151.286C465.101 140.818 457.221 130.278 448.837 125.993C440.453 121.695 429.826 122.463 422.066 130.578C414.306 138.705 414.762 146.676 412.759 158.476C410.756 170.277 399.23 148.837 404.375 140.482C410.888 139.762 416.981 130.494 412.471 123.976C407.961 117.445 396.351 124.132 398.378 132.079C393.293 134.648 386.708 117.589 383.722 123.412C380.735 129.234 389.023 138.549 387.668 145.2C386.324 151.838 392.249 163.794 380.387 162.09C376.033 148.921 379.5 133.807 381.587 121.275C383.674 108.742 375.326 91.4559 383.686 81.3602C392.045 71.2525 404.183 67.099 396.279 53.7501C388.375 40.4013 367.386 64.6981 386.384 66.0546C369.641 83.0168 372.639 106.101 371.991 128.477C349.647 111.947 321.869 137.361 332.411 162.09C318.462 160.829 329.845 141.694 324.939 131.154C320.034 120.615 308.687 118.646 301.227 128.477C280.178 108.598 271.122 148.165 268.843 163.29C261.491 156.22 268.004 137.469 258.349 129.378C248.681 121.299 234.888 121.635 225.965 129.978C217.041 138.321 218.553 151.61 217.269 162.09C210.541 155.643 204.628 144.227 193.581 141.382C182.523 138.537 186.349 115.009 171.692 123.676ZM91.3326 51.6494C92.388 38.8527 75.1167 26.3441 63.6505 35.9476C52.1962 45.5631 59.8484 68.3595 74.541 68.4555C67.4885 82.0205 70.2232 104.289 87.7344 108.07C73.1617 110.039 60.8559 120.723 62.547 136.881C64.2382 153.038 81.0177 159.281 93.4315 152.186C105.833 145.08 108.22 124.108 90.0972 121.311C71.9863 118.502 78.7869 156.976 94.9307 138.081C86.2231 158.692 60.3761 129.81 78.439 119.174C96.502 108.526 110.895 131.755 106.949 146.508C103.015 161.273 93.4435 177.431 76.8558 180.012C60.2682 182.581 42.4571 174.598 31.6626 161.79C20.868 148.981 15.7705 135.26 12.4362 118.61C9.1019 101.96 11.3568 76.7265 15.5067 60.9888C19.6566 45.239 28.9159 31.9982 37.7195 19.5977C46.5351 7.19712 64.8379 4.112 80.2261 11.1466C95.6264 18.1691 103.602 38.4325 91.3326 51.6494ZM85.3356 46.8476C94.2111 65.9226 60.2322 69.5839 61.3476 50.4489C68.544 60.7967 81.8573 55.8149 85.3356 46.8476ZM157.299 128.477C162.889 129.786 167.17 126.833 171.692 124.876C171.56 137.241 181.539 139.269 178.493 154.491C175.446 169.712 160.934 164.911 163.296 151.286C165.659 137.661 159.47 129.738 148.628 125.152C137.785 120.567 126.991 126.581 120.958 135.32C114.925 144.047 122.253 162.798 109.324 164.491C118.319 146.856 118.247 119.282 97.3295 110.471C113.857 109.907 126.367 106.341 142.907 104.469C159.446 102.596 172.376 114.997 157.299 128.477ZM177.689 126.077C184.921 133.675 172.592 134.204 177.689 126.077ZM404.375 134.48C415.637 127.241 398.738 123.063 404.375 134.48ZM145.305 128.477C167.578 133.663 158.751 171.549 136.106 165.295C113.461 159.041 121.905 123.027 145.305 128.477ZM247.254 128.477C268.795 133.819 260.675 171.009 238.055 165.295C215.434 159.581 223.326 122.547 247.254 128.477ZM359.997 128.477C381.623 133.843 373.527 170.937 350.798 165.295C328.069 159.653 336.321 122.607 359.997 128.477ZM442.756 128.477C464.909 133.639 456.357 171.393 433.556 165.295C410.756 159.197 419.392 123.039 442.756 128.477ZM479.937 160.889C476.351 153.555 488.345 130.974 496.417 138.393C504.501 145.812 486.378 160.601 479.937 160.889ZM417.569 165.691C428.327 176.603 444.651 173.482 455.949 165.691C460.351 172.774 469.682 172.305 476.339 169.292C473.928 179.712 476.891 196.194 472.825 206.59C468.771 216.986 460.747 225.401 449.149 226.109C437.55 226.805 428.039 222.46 423.661 208.811C419.272 195.162 405.67 205.738 396.903 199.579C388.135 193.421 375.793 194.994 366.918 202.629C358.042 210.263 348.207 213.288 337.593 217.694C326.99 222.1 311.734 215.497 310.846 202.881C309.971 190.252 316.315 179.352 320.417 168.092C331.2 168.584 338.84 167.072 348.267 172.63C357.707 178.176 369.077 167.36 374.39 162.09C387.08 185.198 400.189 151.418 394.78 139.281C400.561 145.38 397.647 154.455 400.513 162.354C403.368 170.265 411.667 172.966 417.569 165.691ZM394.78 220.911C394.204 227.562 382.942 229.23 381.587 222.112C385.868 225.029 390.918 224.909 394.78 220.911Z" fill="url(#paint0_linear_77_137)"/>
<defs>
<linearGradient id="paint0_linear_77_137" x1="206.5" y1="42.5" x2="221" y2="274.5" gradientUnits="userSpaceOnUse">
<stop stop-color="#297747"/>
<stop offset="1" stop-color="#FFE136"/>
</linearGradient>
</defs>
</svg>
